<?xml version="1.0" encoding="utf-8"?>
<!-- Generator: Adobe Illustrator 24.0.0, SVG Export Plug-In . SVG Version: 6.00 Build 0)  -->
<svg version="1.1" id="Layer_1" xmlns="http://www.w3.org/2000/svg" xmlns:xlink="http://www.w3.org/1999/xlink" x="0px" y="0px"
	 viewBox="0 0 1000 649" style="enable-background:new 0 0 1000 649;" xml:space="preserve">
<style type="text/css">
	.st0{fill:none;stroke:#F37321;stroke-width:5.6766;stroke-miterlimit:10;}
	.st1{fill:#FFFFFF;}
	.st2{fill:#0C275C;}
	.st3{fill:#F37321;}
</style>
<g>
	<g>
		<g>
			<path class="st0" d="M21.53,306.75c43.23-7.69,49.04,24.92,92.27,17.22c43.23-7.69,37.43-40.3,80.67-48
				c43.23-7.69,49.04,24.92,92.27,17.22c43.23-7.69,37.43-40.3,80.67-48c43.24-7.69,49.04,24.92,92.28,17.22
				c43.24-7.69,37.43-40.3,80.67-48"/>
		</g>
		<g>
			<path class="st0" d="M32.58,368.8c43.23-7.69,49.04,24.92,92.27,17.22c43.23-7.69,37.43-40.3,80.67-48
				c43.23-7.69,49.04,24.92,92.27,17.22c43.23-7.69,37.43-40.3,80.67-48c43.24-7.69,49.04,24.92,92.28,17.22
				c43.24-7.69,37.43-40.3,80.67-48"/>
		</g>
		<g>
			<path class="st0" d="M43.62,430.84c43.23-7.69,49.04,24.92,92.27,17.22c43.23-7.69,37.43-40.3,80.67-48
				c43.23-7.69,49.04,24.92,92.27,17.22c43.23-7.69,37.43-40.3,80.67-48c43.24-7.69,49.04,24.92,92.28,17.22
				c43.24-7.69,37.43-40.3,80.67-48"/>
		</g>
		<g>
			<path class="st0" d="M54.66,492.88c43.23-7.69,49.04,24.92,92.27,17.22c43.23-7.69,37.43-40.3,80.67-48
				c43.23-7.69,49.04,24.92,92.27,17.22c43.23-7.69,37.43-40.3,80.67-48c43.24-7.69,49.04,24.92,92.28,17.22
				c43.24-7.69,37.43-40.3,80.67-48"/>
		</g>
		<g>
			<path class="st0" d="M65.7,554.92c43.23-7.69,49.04,24.92,92.27,17.22c43.23-7.69,37.43-40.3,80.67-48
				c43.23-7.69,49.04,24.92,92.27,17.22c43.23-7.69,37.43-40.3,80.67-48c43.24-7.69,49.04,24.92,92.28,17.22
				c43.24-7.69,37.43-40.3,80.67-48"/>
		</g>
	</g>
	<g>
		<path class="st1" d="M674.11,613.16c-67.32,0-133.1-23.81-185.21-67.03c-52.73-43.73-88.38-105.02-100.4-172.58
			c-13.59-76.38,3.37-153.49,47.77-217.11C480.66,92.82,547.18,50.3,623.56,36.7c16.94-3.01,34.17-4.54,51.23-4.54
			c67.32,0,133.1,23.81,185.21,67.03c52.73,43.73,88.38,105.02,100.4,172.58c13.59,76.38-3.37,153.49-47.77,217.11
			c-44.4,63.62-110.91,106.15-187.3,119.74C708.41,611.63,691.17,613.16,674.11,613.16z"/>
		<g>
			<path class="st2" d="M674.81,35c66.65,0,131.78,23.58,183.39,66.38c25.62,21.25,47.15,46.5,64,75.03
				c17.44,29.53,29.35,61.78,35.42,95.86c6.8,38.23,5.92,76.64-2.64,114.18c-8.26,36.26-23.29,70.17-44.67,100.81
				c-21.38,30.64-48.03,56.44-79.21,76.7c-32.28,20.98-68.03,35.06-106.26,41.87c-16.77,2.99-33.84,4.5-50.73,4.5
				c-66.66,0-131.79-23.57-183.4-66.38c-25.62-21.25-47.16-46.5-64-75.03c-17.44-29.53-29.35-61.78-35.42-95.86
				c-6.8-38.23-5.92-76.64,2.64-114.18c8.26-36.26,23.29-70.17,44.67-100.81c21.38-30.64,48.03-56.44,79.21-76.7
				c32.28-20.98,68.03-35.06,106.26-41.87C640.83,36.51,657.9,35,674.81,35L674.81,35 M674.8,29.32c-17.05,0-34.36,1.49-51.73,4.59
				C463.59,62.29,357.32,214.58,385.7,374.05C410.99,516.15,534.64,616,674.11,616c17.05,0,34.36-1.49,51.73-4.59
				c159.47-28.38,265.74-180.67,237.36-340.14C937.92,129.18,814.26,29.32,674.8,29.32L674.8,29.32z"/>
		</g>
	</g>
	<g>
		<path class="st1" d="M674.25,497.25c-40.46,0-79.99-14.31-111.31-40.29c-31.69-26.28-53.12-63.12-60.34-103.71
			c-8.17-45.9,2.03-92.24,28.71-130.48c26.68-38.24,66.66-63.79,112.56-71.96c10.18-1.81,20.54-2.73,30.79-2.73
			c40.46,0,79.99,14.31,111.31,40.29c31.69,26.28,53.12,63.12,60.34,103.71c16.86,94.76-46.51,185.57-141.27,202.44
			C694.86,496.33,684.5,497.25,674.25,497.25z"/>
		<g>
			<path class="st2" d="M674.67,150.92c39.79,0,78.68,14.08,109.49,39.63c15.3,12.69,28.15,27.76,38.21,44.79
				c10.41,17.63,17.52,36.88,21.15,57.23c8.04,45.16-1.99,90.74-28.24,128.36s-65.57,62.75-110.73,70.79
				c-10.02,1.78-20.21,2.69-30.29,2.69c-39.8,0-78.68-14.08-109.49-39.63c-15.3-12.69-28.15-27.76-38.21-44.79
				c-10.41-17.63-17.52-36.89-21.15-57.23c-8.04-45.16,1.99-90.74,28.24-128.36c26.25-37.61,65.57-62.75,110.73-70.79
				C654.38,151.82,664.57,150.92,674.67,150.92L674.67,150.92 M674.66,145.24c-10.31,0-20.78,0.9-31.29,2.77
				c-96.46,17.17-160.73,109.27-143.57,205.73c15.3,85.95,90.09,146.34,174.44,146.34c10.31,0,20.78-0.9,31.29-2.77
				c96.46-17.17,160.73-109.27,143.57-205.73C833.81,205.63,759.02,145.24,674.66,145.24L674.66,145.24z"/>
		</g>
	</g>
	<g>
		<path class="st2" d="M506.4,453.29l-7.91,11.52c-2.81,4.15-3.28,4.26-6.06,6.79c3.2-2.15,3.96-2.79,8.72-4.86l12.17-5.28
			l5.64,6.66l-28.08,9.99l-14.85,12.56l-6.28-7.42l14.85-12.55l15.2-25.21L506.4,453.29z"/>
		<path class="st2" d="M530.74,510.24c-10.95,12.95-19.27,15.21-26.91,8.75c-8.02-6.78-5.62-16.09,4.87-28.5
			c10.68-12.62,19.19-15,26.77-8.58C543.06,488.32,541.78,497.18,530.74,510.24z M509.45,512.68c2.87,2.43,5.05,0.84,13.71-9.4
			c7.65-9.05,9.84-12.4,6.7-15.06c-3.36-2.84-8.17,2.85-13.94,9.67C508.99,506.07,506.3,510.02,509.45,512.68z"/>
		<path class="st2" d="M563.89,503.1l-15.53,27.16c-3.06,5.36-2.78,7.73,0.17,9.42c2.59,1.48,4.7,1.22,8.22-4.94l15.39-26.92
			l7.14,4.09l-15.5,27.1c-6.2,10.84-12.29,12.34-20.11,7.87c-9.18-5.25-9.54-11.34-3.58-21.75l15.36-26.85L563.89,503.1z"/>
		<path class="st2" d="M590.9,517.12l14.05,4.95c8.43,2.97,9.23,10.55,6.82,17.38c-1.86,5.29-4.55,8.85-10.04,9.93l-0.05,21.72
			l-9.64-3.4l1.16-19.3l-2.88-1.01l-6.18,17.53l-8.97-3.16L590.9,517.12z M592.91,540.02l2.34,0.83c3.08,1.08,5.6,0.54,7.46-4.74
			c1.7-4.82,0.16-6.86-3.19-8.04l-2.14-0.75L592.91,540.02z"/>
		<path class="st2" d="M673.05,533.96l-0.57,8.28l-13.45-0.92l-0.84,12.25l10.34,0.71l-0.54,7.86l-10.34-0.71l-1.29,18.83l-9.7-0.66
			l3.23-47.22L673.05,533.96z"/>
		<path class="st2" d="M696.04,532.5l5.87,18.71c2.05,6.61,2.63,10.04,3.39,13.8c-0.25-4.26-0.23-10.27,0.2-15.4l1.59-18.51
			l12.95-1.64l5.95,46.96l-9.22,1.17l-3.48-27.45c-0.3-2.39-0.76-8.84-1.21-13.51c-0.05,3.58-0.23,12.33-0.31,13.92l-2.25,27.97
			l-6.05,0.77l-8.99-26.9c-0.6-1.92-1.32-4.19-3.52-13.14c1.15,7.37,1.74,11.51,1.86,12.43l3.61,28.51l-7.67,0.97l-5.95-46.96
			L696.04,532.5z"/>
		<path class="st2" d="M775.17,509.13l3.39,7.58l-12.3,5.51l5.02,11.2l9.45-4.23l3.22,7.19l-9.45,4.23l7.71,17.22l-8.87,3.97
			l-19.34-43.19L775.17,509.13z"/>
		<path class="st2" d="M796.33,495.96l34.77,33.84l-8.21,5.33l-7.17-7.52l-7.85,5.1l4.02,9.57l-7.32,4.76l-16.69-45.6L796.33,495.96
			z M804.52,525.75l6.13-3.98l-9.08-9.16c-2.49-2.53-3.46-3.76-5.16-6.12c0.71,1.48,2.23,4.73,3.15,6.92L804.52,525.75z"/>
		<path class="st2" d="M822.41,474.97l16.05,11.27c5.65,3.99,8.2,6.36,11.09,8.88c-2.79-3.22-6.43-8.01-9.22-12.34l-10-15.65
			l9.28-9.18l33.29,33.63l-6.6,6.54l-19.47-19.66c-1.7-1.71-5.99-6.55-9.18-9.98c2.14,2.87,7.32,9.92,8.22,11.23l15.23,23.56
			l-4.34,4.29l-23.5-15.87c-1.65-1.16-3.6-2.53-10.79-8.28c5.39,5.14,8.39,8.07,9.04,8.72l20.21,20.42l-5.5,5.44l-33.29-33.63
			L822.41,474.97z"/>
		<path class="st2" d="M852.77,439.43L891.24,467l-5.66,7.9l-38.48-27.57L852.77,439.43z"/>
		<path class="st2" d="M864.53,420.04l33.91,18.43l5.72-10.54l7.67,4.16l-10.37,19.08l-41.58-22.59L864.53,420.04z"/>
		<path class="st2" d="M875.25,397.17l13.92,1.25c4.99,0.42,5.32,0.77,8.89,1.95c-3.44-1.73-4.37-2.08-8.51-5.21l-10.57-8.02
			l3.05-8.18l22.47,19.57l18.22,6.78l-3.39,9.11l-18.22-6.78l-29.43-0.89L875.25,397.17z"/>
	</g>
	<g>
		<path class="st2" d="M453.23,240.79l-0.9,8.11l-3.72-0.46c-3.65-0.44-5.76,0.41-6.6,3.19c-1.27,4.21,1.79,6.33,14.69,10.23
			c10.59,3.21,14.59,3.01,15.82-1.07c1.23-4.07-2.03-6.03-7.46-7.67l-1.71,5.64l-7.54-2.28l4.16-13.72l23.91,7.24l-1.21,4.01
			l-5.76-0.56c3.91,3.48,4.69,6.54,3.38,10.88c-2.8,9.24-11.73,11.57-26.95,6.96c-15.42-4.67-22.36-12.33-19.42-22.04
			C436.21,241.64,442.39,238.62,453.23,240.79z"/>
		<path class="st2" d="M446.02,218.48l6.87-13.22c4.12-7.93,11.73-7.66,18.15-4.32c4.97,2.58,8.13,5.74,8.42,11.33l21.5,3.09
			l-4.71,9.07l-18.95-3.85l-1.41,2.71l16.5,8.57l-4.38,8.43L446.02,218.48z M468.97,219.69l1.14-2.2c1.5-2.89,1.32-5.47-3.65-8.05
			c-4.53-2.35-6.77-1.12-8.41,2.03l-1.05,2.02L468.97,219.69z"/>
		<path class="st2" d="M483.29,159.83l6.61,5.03l-9.02,11.86l8.75,6.66l6.92-9.09l6.27,4.77l-6.92,9.09l9.43,7.18l9.02-11.86
			l6.61,5.03l-14.91,19.59l-37.66-28.66L483.29,159.83z"/>
		<path class="st2" d="M512.94,130.33l5.68,6.05l-10.86,10.2l7.53,8.02l8.33-7.82l5.39,5.74l-8.33,7.82l8.11,8.64l10.86-10.2
			l5.68,6.05l-17.95,16.86l-32.4-34.5L512.94,130.33z"/>
		<path class="st2" d="M545.81,107l4.97,7.44l-6.61,4.41l21.32,31.92l-8.08,5.4l-21.32-31.93l-6.43,4.3l-4.97-7.44L545.81,107z"/>
		<path class="st2" d="M567.73,95.65l20.95,42.44l-8.72,4.3l-20.95-42.44L567.73,95.65z"/>
		<path class="st2" d="M593.77,85.2l13.28,17.42c0.78,1.02,2.68,3.69,5.67,9.06c-2.97-7.39-4.35-11.2-4.96-13.09l-5.22-16.21
			l7.5-2.41l14.49,45.05l-7.5,2.41l-15.85-20.32c-1.66-2.15-3.47-4.77-5.59-8.34c2.8,6.63,4.63,11.85,4.94,12.8l6.17,19.18
			l-7.5,2.41l-14.49-45.05L593.77,85.2z"/>
		<path class="st2" d="M659.05,87.3l-7.77,2.49l-1.1-3.58c-1.09-3.51-2.72-5.09-5.61-4.72c-4.36,0.56-5.04,4.22-3.33,17.59
			c1.4,10.98,3.21,14.54,7.44,14c4.22-0.54,4.67-4.32,3.95-9.95l-5.84,0.75l-1-7.81l14.22-1.82l3.16,24.78l-4.15,0.53l-1.84-5.49
			c-1.58,5-4.05,6.96-8.55,7.53c-9.57,1.22-15.36-5.98-17.37-21.75c-2.04-15.98,2.12-25.45,12.18-26.73
			C651.31,72.12,656.6,76.53,659.05,87.3z"/>
		<path class="st2" d="M700.41,83.06l-7.4,2.8c-0.6-3.44-2.26-5.66-5.09-5.81c-2.62-0.14-4.21,1.62-4.36,4.39
			c-0.16,2.98,0.91,4.24,6.73,7.11c8.1,3.98,9.91,8.77,9.61,14.44c-0.48,9.07-6.25,14.66-15.11,14.19
			c-7.87-0.42-12.17-4.98-13.21-13.5l7.87-2.28c0.81,4.88,2.32,7.09,5.8,7.27c3.12,0.17,4.93-1.87,5.09-4.77
			c0.14-2.62-1.12-4.25-4.03-5.76c-9.89-5.15-12.23-9.18-11.84-16.55c0.32-6.02,5.13-13.51,13.63-13.06
			C694.32,71.87,698.69,75.37,700.41,83.06z"/>
		<path class="st2" d="M765.92,88.77l-2.61,7.88l-12.8-4.24l-3.86,11.65l9.84,3.26l-2.48,7.48l-9.84-3.26l-5.93,17.92l-9.23-3.05
			l14.87-44.93L765.92,88.77z"/>
		<path class="st2" d="M780.86,95.24l13.16,7c7.89,4.2,7.54,11.81,4.15,18.2c-2.63,4.95-5.82,8.08-11.41,8.32l-3.3,21.47l-9.02-4.8
			l4.03-18.91l-2.69-1.43l-8.73,16.42l-8.4-4.46L780.86,95.24z M779.43,118.19l2.19,1.16c2.88,1.53,5.46,1.38,8.09-3.57
			c2.4-4.51,1.18-6.76-1.95-8.43l-2-1.07L779.43,118.19z"/>
		<path class="st2" d="M827.25,154.45c-10.56,13.28-18.81,15.78-26.64,9.55c-8.22-6.54-6.11-15.92,4.01-28.64
			c10.29-12.94,18.73-15.57,26.51-9.39C838.9,132.16,837.89,141.06,827.25,154.45z M806.03,157.52c2.94,2.34,5.08,0.68,13.43-9.81
			c7.38-9.28,9.46-12.7,6.24-15.26c-3.44-2.74-8.08,3.09-13.65,10.09C805.38,150.93,802.81,154.96,806.03,157.52z"/>
		<path class="st2" d="M864.85,159.38l-12.7,14.94c-4.5,5.26-7.09,7.58-9.87,10.23c3.47-2.48,8.57-5.66,13.13-8.04l16.51-8.52
			l8.29,10.08l-36.56,30.05l-5.9-7.18l21.37-17.57c1.86-1.53,7.08-5.36,10.78-8.22c-3.06,1.87-10.55,6.38-11.94,7.15l-24.86,13
			l-3.87-4.71l17.97-21.94c1.31-1.54,2.85-3.35,9.24-9.99c-5.62,4.89-8.81,7.61-9.52,8.19l-22.2,18.25l-4.91-5.97l36.56-30.05
			L864.85,159.38z"/>
	</g>
	<g>
		<polygon class="st2" points="447.44,335.9 460.88,354.16 483.54,353.43 470.33,371.86 478.02,393.19 456.41,386.32 438.51,400.22 
			438.36,377.55 419.61,364.81 441.12,357.67 		"/>
	</g>
	<g>
		<polygon class="st2" points="895.71,253.77 909.15,272.03 931.81,271.31 918.6,289.73 926.29,311.06 904.68,304.19 886.77,318.09 
			886.63,295.42 867.88,282.68 889.39,275.54 		"/>
	</g>
	<g>
		<g>
			<circle class="st3" cx="674.45" cy="322.66" r="130.08"/>
		</g>
		<g>
			<path class="st2" d="M689.27,405.91c-39.91,7.1-77.27-14.59-83.29-48.37l11.14-1.98c4.92,27.63,36.39,45.22,70.17,39.21
				c33.77-6.01,57.25-33.38,52.33-61.01l11.14-1.98C756.76,365.55,729.18,398.81,689.27,405.91z"/>
			<path class="st2" d="M649.16,309.65l-11.14,1.98c-2.19-12.28-11.46-20.94-20.67-19.3c-9.21,1.64-14.93,12.96-12.74,25.25
				l-11.14,1.98c-3.28-18.42,6.54-35.63,21.89-38.36C630.72,278.47,645.88,291.23,649.16,309.65z"/>
			<path class="st2" d="M749.39,291.81l-11.14,1.98c-2.19-12.28-11.46-20.94-20.67-19.3c-9.21,1.64-14.93,12.96-12.74,25.25
				l-11.14,1.98c-3.28-18.42,6.54-35.63,21.89-38.36C730.95,260.63,746.11,273.39,749.39,291.81z"/>
		</g>
	</g>
</g>
</svg>
