<svg id="Layer_1" data-name="Layer 1" xmlns="http://www.w3.org/2000/svg" viewBox="0 0 195.37 119.85"><defs><style>.cls-1,.cls-2{fill:#e57200;}.cls-2,.cls-3{fill-rule:evenodd;}.cls-3,.cls-4{fill:#fff;}</style></defs><title>logo-uva-footer-ko</title><g id="_Group_" data-name="&lt;Group&gt;"><rect id="_Path_" data-name="&lt;Path&gt;" class="cls-1" x="108.45" y="26.02" width="4.78" height="22.75"/><rect id="_Path_2" data-name="&lt;Path&gt;" class="cls-1" x="82.65" y="26.02" width="4.63" height="22.75"/><rect id="_Path_3" data-name="&lt;Path&gt;" class="cls-1" x="88.87" y="26.02" width="4.93" height="22.75"/><rect id="_Path_4" data-name="&lt;Path&gt;" class="cls-1" x="95.4" y="26.02" width="4.93" height="22.75"/><rect id="_Path_5" data-name="&lt;Path&gt;" class="cls-1" x="101.92" y="26.02" width="4.93" height="22.75"/><polygon id="_Path_6" data-name="&lt;Path&gt;" class="cls-1" points="111.17 24.41 84.6 24.41 98.24 16.02 111.17 24.41"/><polygon id="_Path_7" data-name="&lt;Path&gt;" class="cls-1" points="81.54 24.41 70.15 24.41 70.15 15.94 95.32 15.94 81.54 24.41"/><polygon id="_Path_8" data-name="&lt;Path&gt;" class="cls-1" points="101.05 15.94 125.57 15.94 125.57 24.41 114.12 24.41 101.05 15.94"/><path id="_Path_9" data-name="&lt;Path&gt;" class="cls-1" d="M124.66,53.8H76.26a27.6,27.6,0,0,1,48.4,0Z" transform="translate(-2.6 -39.47)"/><path id="_Compound_Path_" data-name="&lt;Compound Path&gt;" class="cls-2" d="M76.48,81.76,76.06,83l1.09-.78,1.08.78-.41-1.27L78.9,81H77.56l-.41-1.27L76.73,81H75.39Zm-3.74-7.23,1.09.78-.42,1.28,1.09-.79,1.08.79-.41-1.28,1.08-.78H74.91l-.41-1.28-.42,1.28ZM83.65,88.25H82.19L81.78,87l1.08-.79H81.52l-.41-1.27-.42,1.27H79.35l1.09.79L80,88.25H72.75V69.58l1-.74,1.08.79-.41-1.28,1.08-.78H74.18l-.41-1.28-.19.58-.26.7h-.57V65.49h10.9Zm-1.47,0H80l1.07-.78ZM72.75,69.42V68.1l.32.23-.23.71Z" transform="translate(-2.6 -39.47)"/><rect id="_Path_10" data-name="&lt;Path&gt;" class="cls-1" x="70.15" y="50.38" width="10.9" height="6.04"/><rect id="_Path_11" data-name="&lt;Path&gt;" class="cls-1" x="114.82" y="50.38" width="10.75" height="6.04"/><path id="_Compound_Path_2" data-name="&lt;Compound Path&gt;" class="cls-2" d="M107.93,94.12l1.09-.79h-1.34l-.41-1.27-.42,1.27h-1.34l1.09.79-.42,1.27,1.09-.78,1.08.78ZM99.84,95l-.31.93H85.25v-6H87l-.31,1H85.36l1.09.79L86,92.86l1.09-.79,1.08.79-.41-1.27,1.08-.79H87.53l-.31-1h26.55l-.31,1h-1.34l1.09.79-.42,1.27,1.09-.79,1.08.79-.42-1.27,1.09-.79h-1.34l-.31-1h1.84v6H101.48l-.31-.93,1.09-.78h-1.34l-.42-1.28-.41,1.28H98.75Zm-7-.84-.41,1.27,1.08-.78,1.09.78-.42-1.27,1.09-.79H94l-.42-1.27-.41,1.27H91.78Zm8.26,1.77H99.89l.61-.44Z" transform="translate(-2.6 -39.47)"/><path id="_Compound_Path_3" data-name="&lt;Compound Path&gt;" class="cls-2" d="M124.51,81.76,125.6,81h-1.34l-.41-1.27L123.43,81h-1.34l1.09.79L122.76,83l1.09-.78,1.08.78ZM121,88.25,120.55,87l1.09-.79H120.3l-.42-1.27-.41,1.27h-1.34l1.08.79-.41,1.27,1.08-.78,1.08.78Zm7.21,0H117.42V65.49h10.75v2.08h-.53l-.41-1.28-.42,1.28h-1.34l1.09.78-.42,1.28,1.09-.79.94.69v5h-1.26l-.42-1.28-.41,1.28h-1.34l1.08.78-.41,1.28,1.08-.79,1.09.79-.42-1.28,1-.73Zm0-20.1v1l-.28-.85Z" transform="translate(-2.6 -39.47)"/></g><path id="_Path_12" data-name="&lt;Path&gt;" class="cls-3" d="M18.07,129.06c3.72,0,6.33-1,8-2.56,2.4-2,3.34-4.75,3.59-8.25.13-1.67.22-9.15.22-9.75s0-6.67.08-7.1.26-1.71,1.84-1.71h1.75c.22,0,.26-.17.26-.43v-.94c0-.13,0-.3-.43-.3s-1.75.13-4.7.13S23.89,98,23.46,98c-.26,0-.3.09-.3.3v1c0,.21,0,.34.3.34h1.88a1.91,1.91,0,0,1,1.93,1.88c.12,1.07.21,3.55.21,6.8v9.15c0,3.16-.56,5.73-2.22,7.52a9.13,9.13,0,0,1-6.42,2.36c-2.48,0-5.21-.77-6.79-3.08a10.2,10.2,0,0,1-1.37-5.43c0-1.37-.22-6.8-.22-9.07V107c0-2.18,0-5.17.09-5.56a1.92,1.92,0,0,1,2-1.75h2.14c.3,0,.34-.08.34-.3V98.28c0-.17,0-.26-.38-.26s-2.53.13-5.86.13S3.41,98,3,98s-.38.09-.38.35v.94c0,.3,0,.38.3.38h2c1.32,0,1.62.68,1.62,2.18v10.18c0,5.6.17,8.46.68,10.39a7.78,7.78,0,0,0,5.09,5.72A15.85,15.85,0,0,0,18.07,129.06Z" transform="translate(-2.6 -39.47)"/><path id="_Path_13" data-name="&lt;Path&gt;" class="cls-3" d="M53.18,114.32a68.89,68.89,0,0,1,.14-7c.09-.65.32-1,1.48-1h.47c.18,0,.28-.14.28-.33v-1c0-.28-.1-.37-.33-.37s-1.95.14-2.93.14c-1.48,0-3.48-.14-3.8-.14s-.33.09-.33.23v1.11c0,.24.09.33.33.33h.79a1.76,1.76,0,0,1,1.71.83,22.24,22.24,0,0,1,.38,4.37c.09,1.49.13,2.93.13,5.57v3.07h-.18c-.56-.6-4.88-6-5.71-7-1-1.16-6.32-7.9-6.46-8.09s-.47-.37-1.12-.37-1.53.1-2.27.1c-.51,0-1.26,0-1.86-.1s-1.12,0-1.21,0a.27.27,0,0,0-.28.27v1.12a.25.25,0,0,0,.28.28h.42a2.31,2.31,0,0,1,2.46,2.46v4.88c0,5.25-.09,8.54-.14,9.1a1.43,1.43,0,0,1-1.34,1.4H33c-.14,0-.19,0-.19.13v1.21c0,.23.05.33.14.33.37,0,2.46-.14,3.11-.14,1.35,0,3.21.14,3.53.14s.24-.1.24-.28v-1.12c0-.18,0-.27-.24-.27h-1c-.47,0-1-.52-1.12-1.58-.09-.42-.28-5.07-.28-7.85v-6.37h.1c.74.84,4.5,5.85,5.62,7.16.51.6,2.51,3,4.64,5.52,1.91,2.28,3.49,4.18,3.81,4.51a2.08,2.08,0,0,0,1.07.46c.56,0,.7-.46.7-.88Z" transform="translate(-2.6 -39.47)"/><path id="_Path_14" data-name="&lt;Path&gt;" class="cls-3" d="M64.21,113.86c0-.33,0-5.86,0-6.32,0-1,.47-1.16,1.72-1.16h.79c.23,0,.28-.14.28-.33v-1.11c0-.14-.09-.23-.28-.23-.37,0-2.74.14-4.09.14-2.18,0-5.06-.14-5.34-.14a.25.25,0,0,0-.28.27v1.07c0,.19.05.33.28.33h.84c1.95,0,2.37.46,2.37,1s.09,5.3.09,6v2c0,1.58-.05,7.47-.09,7.89-.1.84-.84.89-2,.89h-1a.26.26,0,0,0-.28.27v1c0,.23.09.37.28.37s3-.14,4.55-.14c2.09,0,4.51.14,4.88.14s.28-.14.28-.33v-1.11c0-.14,0-.23-.28-.23h-.7a1.73,1.73,0,0,1-2-1.72c0-.7,0-6,0-6.32Z" transform="translate(-2.6 -39.47)"/><path id="_Compound_Path_4" data-name="&lt;Compound Path&gt;" class="cls-3" d="M111.3,115.16c0,2.83,0,5.57,0,7.85,0,1-.55,1.21-1.67,1.21H109c-.18,0-.28.09-.28.23v1.07c0,.23.1.37.28.37.33,0,2.7-.14,3.86-.14,1.53,0,4,.14,4.37.14s.37-.1.37-.33v-1.11c0-.14-.1-.23-.28-.23h-1.21a1.17,1.17,0,0,1-1.3-1.17v-6.13a4.89,4.89,0,0,1,1.21-.09c1.95,0,2.65,1,4.32,3.9.42.7,2.46,4.46,3.34,5.11.79,0,1.91-.09,3-.09.47,0,1,0,1.44,0l.93.1c.19,0,.28-.14.28-.33v-.93c0-.28,0-.41-.23-.41a3.17,3.17,0,0,1-2.09-.52,14.59,14.59,0,0,1-2.6-3c-1.91-2.69-2.83-4.13-3.9-4.36v-.1c3.67-1.3,5.48-3.16,5.48-6.36a5.06,5.06,0,0,0-1.63-3.39,9.25,9.25,0,0,0-6-1.81c-.6,0-4.64.14-5.2.14-.83,0-3.71-.14-4-.14s-.28.09-.28.23v1.11c0,.19.05.33.19.33h.46c1.31,0,1.72.51,1.77,1.44v7.34Zm3.53-8c0-.83.7-1,1.39-1a7.75,7.75,0,0,1,4.42,1.21,4,4,0,0,1,1.53,3.21c0,1.2-.79,4.83-6,4.83a9.17,9.17,0,0,1-1.39-.1Z" transform="translate(-2.6 -39.47)"/><path id="_Path_15" data-name="&lt;Path&gt;" class="cls-3" d="M137.19,126.31a6.12,6.12,0,0,0,6.46-6.46c0-2.32-.56-3.48-1.49-4.46-1.16-1.21-2.88-1.72-5-2.51a8.33,8.33,0,0,1-3.25-1.9,3.83,3.83,0,0,1-.74-2.28,3.05,3.05,0,0,1,3.3-2.83,3.91,3.91,0,0,1,3.06,1.25,11.64,11.64,0,0,1,1.63,3.3c0,.14.14.23.28.19l.83-.19a.26.26,0,0,0,.19-.28c-.05-.65-.47-3.67-.47-5.2,0-.23,0-.42-.41-.42s-.52,0-.61.14l-.18.32c-.1.24-.33.19-.79-.09a7.27,7.27,0,0,0-3.3-.6,6.79,6.79,0,0,0-4.37,1.39,5.45,5.45,0,0,0-2,3.9c0,2.28.56,3.77,1.63,4.79a14.47,14.47,0,0,0,4.55,2.41c2.46.93,4.28,2.09,4.28,4.74,0,2-2.23,3.16-3.72,3.16a4.4,4.4,0,0,1-4-2.32,5.92,5.92,0,0,1-.83-3.16c0-.19-.19-.28-.38-.33l-.83-.09c-.19,0-.28.14-.33.33,0,.74-.37,4.46-.51,5.76-.05.23.09.41.37.51s.61,0,.7-.24l.14-.37c.09-.37.37-.32.7-.09A7.92,7.92,0,0,0,137.19,126.31Z" transform="translate(-2.6 -39.47)"/><path id="_Path_16" data-name="&lt;Path&gt;" class="cls-3" d="M151.51,113.86c0-.33.05-5.86.05-6.32.05-1,.47-1.16,1.72-1.16h.79c.23,0,.28-.14.28-.33v-1.11c0-.14-.09-.23-.28-.23-.37,0-2.74.14-4.09.14-2.18,0-5.06-.14-5.34-.14s-.28.09-.28.27v1.07c0,.19,0,.33.28.33h.84c2,0,2.37.46,2.37,1s.09,5.3.09,6v2c0,1.58-.05,7.47-.09,7.89-.1.84-.84.89-2,.89h-1a.26.26,0,0,0-.28.27v1c0,.23.09.37.28.37s3-.14,4.55-.14c2.09,0,4.5.14,4.88.14s.27-.14.27-.33v-1.11c0-.14,0-.23-.27-.23h-.7c-1.35,0-1.91-.65-2-1.72-.05-.7-.05-6-.05-6.32Z" transform="translate(-2.6 -39.47)"/><path id="_Compound_Path_5" data-name="&lt;Compound Path&gt;" class="cls-3" d="M27,140.64c4.26,0,6.82-5.85,6.82-9.09,0-2-1.18-3.44-3.15-3.44-3.91,0-6.7,5-6.7,8.73C23.94,139.08,25.35,140.64,27,140.64Zm-.44-1.41a1.39,1.39,0,0,1-1.35-1.5,9.88,9.88,0,0,1,1.7-4.77c1.47-2.38,3-3.49,4.26-3.49a1.45,1.45,0,0,1,1.47,1.64C32.61,133.05,29.59,139.23,26.53,139.23Z" transform="translate(-2.6 -39.47)"/><path id="_Path_17" data-name="&lt;Path&gt;" class="cls-3" d="M75.39,141.38c0-.32,0-5.85,0-6.31,0-1,.47-1.17,1.72-1.17H78c.23,0,.28-.14.28-.32v-1.12c0-.14-.09-.23-.28-.23-.37,0-2.74.14-4.09.14-2.18,0-5.06-.14-5.34-.14a.24.24,0,0,0-.28.28v1.07c0,.18.05.32.28.32h.84c2,0,2.37.47,2.37,1s.09,5.29.09,6v2c0,1.58,0,7.48-.09,7.9-.1.83-.84.88-2,.88h-1a.27.27,0,0,0-.28.28v1c0,.23.09.37.28.37s3-.14,4.55-.14c2.09,0,4.5.14,4.88.14s.27-.14.27-.32V152c0-.14,0-.23-.27-.23h-.7c-1.35,0-1.91-.65-2-1.72,0-.69,0-6,0-6.31Z" transform="translate(-2.6 -39.47)"/><path id="_Compound_Path_6" data-name="&lt;Compound Path&gt;" class="cls-3" d="M82.15,142.68c-.05,2.84,0,5.58-.05,7.85,0,1-.55,1.21-1.67,1.21h-.56c-.18,0-.28.09-.28.23V153c0,.23.1.37.28.37s2.7-.14,3.86-.14c1.53,0,4,.14,4.37.14s.37-.09.37-.32V152c0-.14-.1-.23-.28-.23H87a1.16,1.16,0,0,1-1.3-1.16v-6.13a4.89,4.89,0,0,1,1.21-.09c2,0,2.65,1,4.32,3.9.42.69,2.46,4.46,3.34,5.11.79-.05,1.91-.1,3-.1.46,0,1,0,1.44,0l.92.09c.19,0,.28-.14.28-.32v-.93c0-.28,0-.42-.23-.42a3.23,3.23,0,0,1-2.09-.51,14.59,14.59,0,0,1-2.6-3c-1.91-2.7-2.83-4.14-3.9-4.37v-.09c3.67-1.3,5.48-3.16,5.48-6.37A5.1,5.1,0,0,0,95.2,134a9.25,9.25,0,0,0-6-1.81c-.6,0-4.64.14-5.2.14-.83,0-3.71-.14-3.95-.14s-.28.09-.28.23v1.12c0,.18,0,.32.19.32h.46c1.31,0,1.72.51,1.77,1.44v7.34Zm3.8-7.94c0-.84.69-1,1.39-1a7.7,7.7,0,0,1,4.41,1.21,3.94,3.94,0,0,1,1.54,3.2c0,1.21-.79,4.83-6,4.83a9.32,9.32,0,0,1-1.39-.09Z" transform="translate(-2.6 -39.47)"/><path id="_Path_18" data-name="&lt;Path&gt;" class="cls-3" d="M117.57,147c0-.79.88-1,1.34-1h.79a.27.27,0,0,0,.24-.28v-1.11c0-.14-.1-.23-.28-.23s-2.28.09-4,.09c-2.51,0-4.78-.09-5.06-.09s-.23.09-.23.23v1.11c0,.14,0,.23.23.23h1.11c1.21,0,2.28.33,2.28,1.4v1.72c0,.93-.09,1.53-.7,2a6.53,6.53,0,0,1-3.85,1A6.61,6.61,0,0,1,105,150c-1.81-1.91-2.83-4.56-2.83-8.13a9.85,9.85,0,0,1,2.41-6.09,6.66,6.66,0,0,1,5-2.37,6.06,6.06,0,0,1,4.69,2.23,11.59,11.59,0,0,1,2.23,3.3c.14.37.24.42.37.37l.89-.28c.14,0,.18-.14.18-.37-.09-.83-.69-5.15-.69-5.39s-.1-.51-.51-.51a.57.57,0,0,0-.61.33l-.23.42c-.09.14-.28.14-.65-.19a10.15,10.15,0,0,0-5.3-1.49,12.51,12.51,0,0,0-8.31,2.84,10.16,10.16,0,0,0-3.44,7.62c0,3.62.93,6.13,2.79,8.17,2.18,2.42,5.9,3.39,8.31,3.39a17.4,17.4,0,0,0,8-1.86c.32-.14.51-.28.51-.51s-.14-.51-.14-.93Z" transform="translate(-2.6 -39.47)"/><path id="_Path_19" data-name="&lt;Path&gt;" class="cls-3" d="M126.08,141.38c0-.32,0-5.85,0-6.31.05-1,.47-1.17,1.72-1.17h.79c.23,0,.28-.14.28-.32v-1.12c0-.14-.09-.23-.28-.23-.37,0-2.74.14-4.09.14-2.18,0-5.06-.14-5.34-.14a.24.24,0,0,0-.28.28v1.07c0,.18,0,.32.28.32h.84c2,0,2.36.47,2.36,1s.1,5.29.1,6v2c0,1.58-.05,7.48-.1,7.9-.09.83-.83.88-2,.88h-1a.27.27,0,0,0-.28.28v1c0,.23.09.37.28.37s3-.14,4.55-.14c2.09,0,4.5.14,4.88.14.23,0,.27-.14.27-.32V152c0-.14,0-.23-.27-.23h-.7c-1.35,0-1.91-.65-2-1.72,0-.69,0-6,0-6.31Z" transform="translate(-2.6 -39.47)"/><path id="_Path_20" data-name="&lt;Path&gt;" class="cls-3" d="M151.19,141.85c0-1.91-.09-4.83.14-7,.09-.65.32-1,1.49-1h.46c.19,0,.28-.14.28-.32v-1c0-.28-.09-.37-.33-.37s-1.95.14-2.92.14c-1.49,0-3.49-.14-3.81-.14s-.33.09-.33.23v1.12c0,.23.1.32.33.32h.79a1.77,1.77,0,0,1,1.72.84,23,23,0,0,1,.37,4.37c.09,1.48.14,2.92.14,5.57v3.07h-.19c-.56-.61-4.88-6-5.71-7-1-1.16-6.32-7.89-6.46-8.08s-.46-.37-1.11-.37-1.54.09-2.28.09c-.51,0-1.25-.05-1.86-.09s-1.11-.05-1.21-.05a.26.26,0,0,0-.27.28v1.12a.24.24,0,0,0,.27.27h.42a2.31,2.31,0,0,1,2.46,2.47v4.87c0,5.25-.09,8.55-.14,9.11a1.41,1.41,0,0,1-1.34,1.39H131c-.14,0-.19,0-.19.14v1.21c0,.23,0,.32.14.32.37,0,2.46-.14,3.12-.14,1.34,0,3.2.14,3.53.14s.23-.09.23-.28V152c0-.19,0-.28-.23-.28h-1c-.46,0-1-.51-1.11-1.58-.1-.42-.28-5.06-.28-7.85V136h.09c.74.83,4.51,5.85,5.62,7.15.51.61,2.51,3,4.65,5.53,1.9,2.28,3.48,4.18,3.8,4.5a2.08,2.08,0,0,0,1.07.47c.56,0,.7-.47.7-.88Z" transform="translate(-2.6 -39.47)"/><path id="_Path_21" data-name="&lt;Path&gt;" class="cls-4" d="M37.07,129.7H34.45c-.14,0-.21-.14-.16-.35l.12-.5c.06-.2.26-.68.5-.68h2.56a17.72,17.72,0,0,1,3.29-6.32,6,6,0,0,1,4.35-2c1.71,0,2.65,1,2.65,1.73a1.21,1.21,0,0,1-1.18,1.35,1.16,1.16,0,0,1-1.29-1.17c0-.3-.32-.86-1.21-.86-2.73,0-3.32,3.89-4.29,7.18,0,0,4.08.11,7.42.11,3.59,0,5.51-.13,5.9-.13s.43.13.43.3v1c0,.22,0,.39-.35.39h-2c-1.19,0-1.79.38-1.79,1.11a7,7,0,0,0,.17,1.45c.25,1.54,1.84,6.63,2.61,9,.51,1.63,3,9,4,11.59,1-2,4.32-10.82,4.66-11.8.43-1.15,2.05-6.07,2.7-8a9.35,9.35,0,0,0,.59-2.44c0-.51-.3-1-1.36-1H61.57c-.17,0-.21-.13-.21-.39v-1c0-.21,0-.3.26-.3.38,0,2.35.13,5,.13,3.12,0,4.19-.13,4.58-.13s.3.09.3.3v1.07c0,.17-.05.3-.3.3H70.08a3.67,3.67,0,0,0-3,1.67c-1.11,1.36-4.54,10.13-5.26,11.92-.52,1.42-6,15-6.24,15.44s-.39.55-.6.55-.52-.42-.73-1c-1.37-3.93-4.83-13.68-5.39-15.22l-.42-1.45c-1-3-3-9.24-3.6-10.52-.42-1-.85-1.41-1.75-1.41l-4,0c-.77,2.38-2.12,7.41-3.59,11.17-1.79,4.59-3.88,7.85-7,7.85A2,2,0,0,1,26.36,147a1.23,1.23,0,0,1,1.26-1.26A1.53,1.53,0,0,1,29,147.05a.57.57,0,0,0,.5.5c1.41,0,3-2.47,4.59-7.91Z" transform="translate(-2.6 -39.47)"/><path id="_Path_22" data-name="&lt;Path&gt;" class="cls-4" d="M156.64,104.64c.06,0,0,0,.18,0a81.08,81.08,0,0,0,8.46.33h1.86c1.52,0,3.15-.06,4.92-.14.89,0,6.35,0,7.46,0s4.18-.14,4.51-.14a.29.29,0,0,1,.32.32v1c0,.19,0,.33-.32.33h-.7c-.83,0-.88.51-.7.79s4.14,6.59,4.88,7.71c.7-1.16,4.55-6.78,4.74-7.15.37-.75.42-1.35-.6-1.35h-.75a.29.29,0,0,1-.32-.33v-1a.29.29,0,0,1,.32-.32c.28,0,2.6.14,4,.14.83,0,2.46-.14,2.74-.14s.32.09.32.37v1c0,.24-.09.33-.27.33h-.47a3.33,3.33,0,0,0-1.67.37c-.7.37-6.09,7.94-7.16,9.57v3.9c.05,1.16,0,2.42.1,3,.09,1,.83,1,1.67,1h.6c.24,0,.33.09.33.23v1.11c0,.19-.09.33-.37.33s-2.88-.14-4.42-.14c-1,0-3.71.14-4,.14s-.33-.1-.33-.37v-1a.27.27,0,0,1,.28-.27h.7c1.49,0,1.77-.28,1.81-.93,0-.42,0-2.09,0-4.83v-1.68c-.42-.83-6.09-9.15-6.83-9.84a2.36,2.36,0,0,0-1.47-.55c.28,1.25.65,2.9.8,3.7,0,.19,0,.28-.23.38l-.79.23c-.28.09-.42,0-.51-.19a12.1,12.1,0,0,0-2.33-3.57,25,25,0,0,0-5.39-.47v7.8c0,4.88,0,8.37,0,8.74.1.74.33,1.21,1.07,1.21H171c.23,0,.32.13.32.41v1a.28.28,0,0,1-.32.28c-.33,0-3.21-.14-4.74-.14-1.3,0-4.32.14-4.69.14s-.37-.14-.37-.42v-.93c0-.23.09-.32.27-.32h1.86c.7,0,1-.38,1.07-.75.14-1.76.14-4.22.14-7v-10a22.43,22.43,0,0,0-5.21.42,10.62,10.62,0,0,0-2.74,3.58c-.09.18-.23.32-.42.23l-.83-.33c-.24-.09-.24-.28-.19-.46.27-.85,1.08-3.71,1.45-5.12A.21.21,0,0,1,156.64,104.64Z" transform="translate(-2.6 -39.47)"/><path id="_Compound_Path_7" data-name="&lt;Compound Path&gt;" class="cls-4" d="M171.86,143.75h6.32c-.19-.65-2.37-7.62-2.46-8s-.14-.46-.28-.46-.24.14-.37.51S172.09,143.29,171.86,143.75Zm-9.64-2.37v2.33c0,.27,0,5.62.05,6.31a1.72,1.72,0,0,0,2,1.72h.54a2.47,2.47,0,0,0,1.9-1c.33-.38,2.7-6,3.81-8.27.33-.65,3.07-7,3.35-7.76.09-.28.37-.79,0-.93-.09-.09-.23-.32-.18-.46s0-.24.46-.33a6.63,6.63,0,0,0,2.6-1.35.61.61,0,0,1,.56-.32c.28,0,.37.19.47.51.65,1.86,3,8.5,3.62,10.36a87.8,87.8,0,0,0,3,8.27,2.72,2.72,0,0,0,2.18,1.25h.88c.19,0,.24.14.24.28v1c0,.13-.05.41-.33.41-.56,0-3-.14-4.09-.14-.88,0-3.62.14-4.22.14-.33,0-.38-.23-.38-.41v-1c0-.14.05-.28.24-.28h.74a.71.71,0,0,0,.74-.79c-.18-.93-1.44-4.64-1.81-5.71h-7.48c-.18.56-1.67,4.41-1.85,5-.28.93-.14,1.53.83,1.53h1.16c.28,0,.33.14.33.33v1c0,.18,0,.32-.28.32s-2.83-.14-3.58-.14h-7.69c-1.58,0-4.27.14-4.55.14s-.28-.14-.28-.37v-1a.27.27,0,0,1,.28-.28h1c1.16,0,1.91-.05,2-.88,0-.42.09-6.32.09-7.9v-2c0-.75-.09-5.39-.09-6s-.42-1-2.37-1h-.84c-.23,0-.27-.14-.27-.32v-1.07c0-.19.09-.28.27-.28s3.16.19,5.35.14c1.34,0,3.71-.14,4.08-.14.19,0,.28.09.28.23v1.12c0,.18,0,.32-.28.32H164c-1.25,0-1.67.19-1.71,1.17C162.27,135.53,162.22,141.06,162.22,141.38Z" transform="translate(-2.6 -39.47)"/><path id="_Compound_Path_8" data-name="&lt;Compound Path&gt;" class="cls-4" d="M77.42,105v1.07c0,.19-.14.28-.32.28H76c-.61,0-1.3.09-1.3.69,0,1.07.79,2.88,2,6.79.37,1.16,2.09,6.55,2.37,7.29h.14c.28-1,2.55-6.74,2.79-7.43,1.76-5.16,2.36-6.41,2.36-6.88,0-.23-.18-.46-1-.46H83c-.19,0-.28-.09-.28-.33V105a.26.26,0,0,1,.28-.27c.28,0,2.69.14,3.76.14h7.1l10.41,0c.46,0,1.06-.09,1.25-.09s.19.09.28.65c.09.41,1.39,4.41,1.49,4.73s0,.28,0,.33l-.74.32c-.1.05-.28.05-.42-.18s-2.32-2.74-3.11-3.49a2.79,2.79,0,0,0-1.77-.69l-4.92-.09v7.89c.28,0,3-.14,3.39-.23,1.21-.33,1.67-1,1.67-2.42,0-.18,0-.23.23-.23l1,0c.19,0,.33.09.28.28-.09.42-.09,2.88-.09,3.3,0,1,.14,2.46.19,3.06,0,.19-.1.23-.24.23l-1,.1c-.14,0-.23,0-.28-.19-.23-1.16-.51-1.9-1.72-2.18a16.26,16.26,0,0,0-3.48-.33v1.58c0,1.63.09,4.32.09,4.93,0,2.18,1.35,2.32,3.34,2.32s3.35,0,4.93-1.3a23.77,23.77,0,0,0,2.46-3.12c.23-.32.46-.37.6-.27l.75.41a.3.3,0,0,1,.14.33l-1.68,4.92c-.09.24-.32.47-.51.47s-2.78-.14-12.54-.14c-.84,0-3.39.14-4,.14-.23,0-.28-.14-.28-.33v-1.07c0-.18.1-.27.33-.27h.42c2.18,0,2.32-.19,2.32-.84v-9.89c0-2.47-.05-5.49-.09-5.95-.14-1-.42-1.16-2.28-1.16H89.17a2.71,2.71,0,0,0-2,.69c-.88.89-3.39,7-3.85,8.18-.42,1-4.23,10.08-4.6,10.68a.79.79,0,0,1-.75.38c-.37,0-.6-.33-.74-.7-1-2.74-3.48-9.48-3.85-10.5l-.33-1c-.79-2.14-2.18-6.36-2.51-6.83a1.65,1.65,0,0,0-1.35-.88h-.46c-.19,0-.23-.14-.23-.28v-1.16c0-.14.09-.23.28-.23s2.78.14,4,.14,4-.14,4.23-.14S77.42,104.8,77.42,105Z" transform="translate(-2.6 -39.47)"/></svg>